<svg width="32" height="32" viewBox="0 0 32 32" fill="none" xmlns="http://www.w3.org/2000/svg">
<path d="M21.9237 10.7066C20.819 10.1897 19.6378 9.814 18.4028 9.6001C18.2511 9.87431 18.0739 10.2431 17.9518 10.5365C16.6389 10.3391 15.3383 10.3391 14.0495 10.5365C13.9274 10.2431 13.7461 9.87431 13.5932 9.6001C12.3568 9.814 11.1742 10.191 10.0695 10.7093C7.84118 14.0766 7.23712 17.3602 7.53915 20.5971C9.01708 21.7008 10.4494 22.3713 11.8575 22.81C12.2051 22.3315 12.5152 21.8228 12.7824 21.2868C12.2736 21.0934 11.7864 20.8549 11.3259 20.5779C11.4481 20.4875 11.5676 20.3928 11.683 20.2956C14.4912 21.609 17.5423 21.609 20.317 20.2956C20.4337 20.3928 20.5532 20.4875 20.674 20.5779C20.2123 20.8563 19.7236 21.0948 19.2149 21.2882C19.482 21.8228 19.7907 22.3329 20.1397 22.8114C21.5492 22.3727 22.9828 21.7022 24.4608 20.5971C24.8152 16.8447 23.8554 13.5911 21.9237 10.7066ZM13.1649 18.6064C12.3219 18.6064 11.6306 17.8194 11.6306 16.8611C11.6306 15.9027 12.3072 15.1144 13.1649 15.1144C14.0227 15.1144 14.714 15.9013 14.6992 16.8611C14.7006 17.8194 14.0227 18.6064 13.1649 18.6064ZM18.835 18.6064C17.992 18.6064 17.3007 17.8194 17.3007 16.8611C17.3007 15.9027 17.9773 15.1144 18.835 15.1144C19.6928 15.1144 20.3841 15.9013 20.3693 16.8611C20.3693 17.8194 19.6928 18.6064 18.835 18.6064Z" fill="white"/>
</svg>
