<svg width="103" height="20" viewBox="0 0 103 20" fill="none" xmlns="http://www.w3.org/2000/svg">
<path d="M15.6063 5.65185C15.6063 5.0946 16.058 4.64286 16.6153 4.64286H19.013C19.5702 4.64286 20.022 5.0946 20.022 5.65185V8.04455C20.022 8.6018 19.5702 9.05355 19.013 9.05355H16.6153C16.058 9.05355 15.6063 8.6018 15.6063 8.04455V5.65185Z" fill="white"/>
<path d="M10.9583 1.0089C10.9583 0.451646 11.41 -9.72748e-05 11.9672 -9.72748e-05H14.365C14.9222 -9.72748e-05 15.374 0.451646 15.374 1.0089V3.4016C15.374 3.95885 14.9222 4.41059 14.365 4.41059H11.9672C11.41 4.41059 10.9583 3.95885 10.9583 3.4016V1.0089Z" fill="white"/>
<path d="M16.3048 4.64302C15.9562 4.64302 15.3752 4.41087 15.3752 3.94659L14.9104 4.41087C15.3752 4.41087 15.6076 4.99123 15.6076 5.33944L16.3048 4.64302Z" fill="white"/>
<path d="M4.91573 5.65185C4.91573 5.0946 4.46398 4.64286 3.90673 4.64286H1.509C0.951743 4.64286 0.5 5.0946 0.5 5.65185V8.04455C0.5 8.6018 0.951743 9.05355 1.509 9.05355H3.90673C4.46398 9.05355 4.91573 8.6018 4.91573 8.04455V5.65185Z" fill="white"/>
<path d="M9.56374 1.0089C9.56374 0.451646 9.112 -9.72748e-05 8.55474 -9.72748e-05H6.15701C5.59976 -9.72748e-05 5.14801 0.451646 5.14801 1.0089V3.4016C5.14801 3.95885 5.59976 4.41059 6.15701 4.41059H8.55474C9.112 4.41059 9.56374 3.95885 9.56374 3.4016V1.0089Z" fill="white"/>
<path d="M4.21715 4.64302C4.56576 4.64302 5.14678 4.41087 5.14678 3.94659L5.61159 4.41087C5.14678 4.41087 4.91437 4.99123 4.91437 5.33944L4.21715 4.64302Z" fill="white"/>
<path d="M4.91573 13.848C4.91573 14.4052 4.46398 14.8569 3.90673 14.8569H1.509C0.951743 14.8569 0.5 14.4052 0.5 13.848V11.4553C0.5 10.898 0.951743 10.4463 1.509 10.4463H3.90673C4.46398 10.4463 4.91573 10.898 4.91573 11.4553V13.848Z" fill="white"/>
<path d="M9.56374 18.4909C9.56374 19.0482 9.112 19.4999 8.55474 19.4999H6.15701C5.59976 19.4999 5.14801 19.0482 5.14801 18.4909V16.0982C5.14801 15.541 5.59976 15.0892 6.15701 15.0892H8.55474C9.112 15.0892 9.56374 15.541 9.56374 16.0982V18.4909Z" fill="white"/>
<path d="M4.21715 14.857C4.56576 14.857 5.14678 15.0892 5.14678 15.5535L5.61159 15.0892C5.14678 15.0892 4.91437 14.5088 4.91437 14.1606L4.21715 14.857Z" fill="white"/>
<path d="M15.3719 16.0982C15.3719 15.5409 14.9202 15.0892 14.3629 15.0892H11.9652C11.408 15.0892 10.9562 15.5409 10.9562 16.0982V18.4908C10.9562 19.0481 11.408 19.4998 11.9652 19.4998H14.3629C14.9202 19.4998 15.3719 19.0481 15.3719 18.4908V16.0982Z" fill="white"/>
<path d="M20.02 11.4552C20.02 10.8979 19.5682 10.4462 19.011 10.4462H16.6132C16.056 10.4462 15.6042 10.8979 15.6042 11.4552V13.8479C15.6042 14.4051 16.056 14.8569 16.6132 14.8569H19.011C19.5682 14.8569 20.02 14.4051 20.02 13.8479V11.4552Z" fill="white"/>
<path d="M14.6734 15.0891C15.022 15.0891 15.603 14.8569 15.603 14.3927L16.0678 14.8569C15.603 14.8569 15.3706 15.4373 15.3706 15.7855L14.6734 15.0891Z" fill="white"/>
<path d="M30.2675 16.3399C33.0507 16.3399 34.4853 15.0784 34.4853 12.659V12.6213C34.4853 10.8138 33.5671 9.72176 31.7977 9.42992V9.24164C33.2802 8.9498 34.0453 7.97073 34.0453 6.40798V6.37032C34.0453 4.26155 32.7159 3.1601 30.1431 3.1601H24.022V4.64753C25.0549 4.64753 25.1123 4.69461 25.1123 5.51364V13.9864C25.1123 14.8054 25.0549 14.8525 24.022 14.8525V16.3399H30.2675ZM27.4843 4.99586H29.7032C31.0422 4.99586 31.683 5.55129 31.683 6.74689V6.79396C31.683 8.02721 31.0422 8.61089 29.7032 8.61089H27.4843V4.99586ZM27.4843 10.1831H29.7988C31.2717 10.1831 31.9795 10.8797 31.9795 12.3106V12.3577C31.9795 13.8075 31.2717 14.4947 29.7988 14.4947H27.4843V10.1831Z" fill="white"/>
<path d="M39.8891 16.3399V14.8525C38.8657 14.8525 38.7988 14.8054 38.7988 13.9864V3.1601H36.7138C36.6181 3.97913 36.4651 4.10151 35.3843 4.10151V5.58895C36.4077 5.58895 36.4747 5.63602 36.4747 6.45505V13.9864C36.4747 14.8054 36.4077 14.8525 35.3843 14.8525V16.3399H39.8891Z" fill="white"/>
<path d="M45.1973 16.5753C47.9613 16.5753 49.5108 14.6548 49.5108 11.501V11.2939C49.5108 8.12135 47.9709 6.2197 45.1973 6.2197C42.4236 6.2197 40.8838 8.12135 40.8838 11.2939V11.501C40.8838 14.6548 42.4236 16.5753 45.1973 16.5753ZM45.1973 14.9937C44.0496 14.9937 43.2844 13.9958 43.2844 11.8399V10.955C43.2844 8.82741 43.9061 7.79186 45.1973 7.79186C46.4789 7.79186 47.1101 8.82741 47.1101 10.955V11.8399C47.1101 13.9675 46.4789 14.9937 45.1973 14.9937Z" fill="white"/>
<path d="M55.2015 16.5753C57.6595 16.5753 59.0941 15.2855 59.3715 12.8567L57.0952 12.6119C56.9326 14.2123 56.3014 14.9843 55.2111 14.9843C53.9103 14.9843 53.2886 13.9393 53.2886 11.7364V10.9456C53.2886 8.80859 53.9773 7.79186 55.3641 7.79186C56.3014 7.79186 56.8848 8.26257 56.8848 8.87449C56.8848 9.46758 56.3205 9.58055 56.3205 10.2207C56.3205 10.8515 56.8179 11.1527 57.5639 11.1527C58.6351 11.1527 59.1898 10.522 59.1898 9.36402C59.1898 7.44353 57.6882 6.2197 55.2971 6.2197C52.4661 6.2197 50.888 7.97073 50.888 11.3222V11.3598C50.888 14.7866 52.3513 16.5753 55.2015 16.5753Z" fill="white"/>
<path d="M64.6892 16.3399V14.8525C63.7902 14.8525 63.7424 14.8054 63.7424 14.0146V12.7531L65.0336 11.6046L66.6117 14.1464C66.956 14.7772 66.8603 14.8525 65.8657 14.8525V16.3399H69.787V14.8525C69.0888 14.8525 69.041 14.8336 68.5723 13.9958L66.5734 10.2207L68.1611 8.70503C68.8975 8.03663 69.0984 7.94248 69.7296 7.94248V6.45505H65.3014V7.89541C66.736 7.94248 66.7551 8.17784 65.6648 9.22281L63.5989 11.1998L63.4363 11.1151C63.6563 10.1925 63.7424 9.50523 63.7424 8.33788V3.1601H61.6574C61.5617 3.97913 61.4087 4.10151 60.3279 4.10151V5.58895C61.3513 5.58895 61.4183 5.63602 61.4183 6.45505V13.9864C61.4183 14.8054 61.3513 14.8525 60.3279 14.8525V16.3399H64.6892Z" fill="white"/>
<path d="M75.6212 16.3493V14.8619C73.8135 14.8619 73.6892 14.8148 73.6892 13.9958V11.1151C73.6892 9.58996 74.3874 8.49792 75.0665 8.49792C75.7073 8.49792 75.4682 9.74059 76.3863 9.74059C77.0558 9.74059 77.4288 9.09101 77.4288 8.07428C77.4288 6.99166 76.9889 6.37974 76.1281 6.37974C75.0282 6.37974 74.0622 7.28349 73.2684 9.18515L73.0675 9.10984C73.4118 7.98014 73.5744 7.14228 73.6031 6.45505H71.6042C71.5086 7.27408 71.3555 7.39646 70.2748 7.39646V8.8839C71.2981 8.8839 71.3651 8.93097 71.3651 9.75V13.9958C71.3651 14.8148 71.2981 14.8619 70.2748 14.8619V16.3493H75.6212Z" fill="white"/>
<path d="M80.2694 5.27828C81.2546 5.27828 81.8188 4.84523 81.8188 4.10151C81.8188 3.36721 81.2546 2.92475 80.2694 2.92475C79.2843 2.92475 78.72 3.36721 78.72 4.10151C78.72 4.84523 79.2843 5.27828 80.2694 5.27828ZM82.5266 16.3399V14.8525C81.5032 14.8525 81.4363 14.8054 81.4363 13.9864V6.45505H79.3513C79.2556 7.27408 79.1026 7.39646 78.0218 7.39646V8.8839C79.0452 8.8839 79.1122 8.93097 79.1122 9.75V13.9864C79.1122 14.8054 79.0452 14.8525 78.0218 14.8525V16.3399H82.5266Z" fill="white"/>
<path d="M86.9357 16.5094C88.4851 16.5094 89.4798 15.5679 90.025 13.9016L90.2258 13.977C89.9102 15.0596 89.7476 15.8504 89.7381 16.3399H93.1429V14.8525C92.1196 14.8525 92.0526 14.8054 92.0526 13.9864V3.1601H89.9676C89.8815 3.97913 89.7285 4.10151 88.6382 4.10151V5.37242C89.6807 5.37242 89.7381 5.41008 89.7572 5.8243L89.7859 6.41739C89.8146 7.10463 89.9293 7.85776 90.2258 8.818L90.025 8.89331C89.4894 7.29291 88.4947 6.2856 86.8975 6.2856C84.7742 6.2856 83.5213 8.11194 83.5213 11.1904V11.6046C83.5213 14.683 84.7838 16.5094 86.9357 16.5094ZM87.72 14.9654C86.4766 14.9654 85.8741 13.9299 85.8741 11.7646V11.0397C85.8741 8.86507 86.4766 7.8201 87.7104 7.8201C89.0207 7.8201 89.7285 8.97804 89.7285 11.1339V11.6705C89.7285 13.8169 89.0207 14.9654 87.72 14.9654Z" fill="white"/>
<path d="M98.4989 14.9937C97.1408 14.9937 96.4426 13.9864 96.4426 11.887V11.7646H102.525C102.583 11.454 102.602 11.1433 102.602 10.7856C102.602 7.86717 101.158 6.22911 98.4989 6.22911C95.6679 6.22911 94.1376 8.05545 94.1376 11.3881V11.4257C94.1376 14.7395 95.6488 16.5658 98.4415 16.5658C100.756 16.5658 102.229 15.3608 102.564 13.2521L100.431 12.9979C100.24 14.3723 99.5892 14.9937 98.4989 14.9937ZM98.5467 7.79186C99.6945 7.79186 100.287 8.50733 100.287 9.87238V9.8818C100.287 10.2395 100.115 10.409 99.704 10.409H96.4617C96.5765 8.66737 97.2651 7.79186 98.5467 7.79186Z" fill="white"/>
</svg>
