<svg width="32" height="32" viewBox="0 0 32 32" fill="none" xmlns="http://www.w3.org/2000/svg">
<path d="M13.5651 22.5933C19.6032 22.5933 22.9052 17.595 22.9052 13.2606C22.9052 13.1186 22.9023 12.9773 22.8959 12.8366C23.5368 12.3736 24.094 11.7958 24.5333 11.1381C23.9452 11.3994 23.3122 11.5751 22.6482 11.6545C23.326 11.2484 23.8463 10.606 24.0917 9.84023C23.4575 10.2159 22.7551 10.489 22.0072 10.6364C21.4082 9.99887 20.5554 9.6001 19.6111 9.6001C17.7983 9.6001 16.3282 11.069 16.3282 12.8798C16.3282 13.1372 16.357 13.3875 16.4133 13.6276C13.6851 13.4904 11.2658 12.1853 9.64673 10.2006C9.36481 10.6853 9.20225 11.2484 9.20225 11.8492C9.20225 12.9872 9.78179 13.9919 10.6631 14.5795C10.1245 14.563 9.61857 14.4152 9.17638 14.1693C9.1759 14.183 9.1759 14.1965 9.1759 14.2112C9.1759 15.7998 10.3074 17.1261 11.8095 17.4266C11.5336 17.5018 11.2434 17.5421 10.9439 17.5421C10.7327 17.5421 10.5269 17.5213 10.3269 17.4829C10.7448 18.7861 11.9567 19.7346 13.3935 19.7611C12.27 20.6411 10.8546 21.1651 9.31635 21.1651C9.05171 21.1651 8.79027 21.1501 8.53333 21.1197C9.98614 22.0502 11.711 22.5933 13.5651 22.5933Z" fill="white"/>
</svg>
