<svg width="17" height="15" viewBox="0 0 17 15" fill="none" xmlns="http://www.w3.org/2000/svg">
<path d="M16.6841 11.8266L13.9154 14.7953C13.8555 14.8598 13.783 14.9113 13.7023 14.9465C13.6217 14.9817 13.5346 14.9999 13.4466 15H0.321692C0.259094 15 0.197863 14.9817 0.145498 14.9474C0.0931337 14.9131 0.0519089 14.8643 0.0268699 14.8069C0.00183098 14.7495 -0.00593462 14.6861 0.00452472 14.6244C0.0149841 14.5626 0.0432121 14.5053 0.0857556 14.4594L2.85137 11.4906C2.91126 11.4262 2.98378 11.3747 3.06443 11.3395C3.14507 11.3043 3.23212 11.286 3.32012 11.286H16.4451C16.5082 11.2847 16.5704 11.3021 16.6237 11.336C16.6769 11.3699 16.7191 11.4189 16.7446 11.4767C16.7702 11.5345 16.778 11.5985 16.7673 11.6608C16.7565 11.723 16.7276 11.7807 16.6841 11.8266ZM13.9154 5.84691C13.8553 5.78272 13.7827 5.73147 13.7021 5.69627C13.6215 5.66108 13.5346 5.64269 13.4466 5.64224H0.321692C0.259094 5.64227 0.197863 5.66055 0.145498 5.69487C0.0931337 5.72916 0.0519089 5.77799 0.0268699 5.83537C0.00183098 5.89274 -0.00593462 5.95616 0.00452472 6.01788C0.0149841 6.0796 0.0432121 6.13694 0.0857556 6.18286L2.85137 9.15316C2.91148 9.21735 2.98406 9.2686 3.06465 9.30381C3.14524 9.33899 3.23218 9.35738 3.32012 9.35784H16.4451C16.5076 9.35751 16.5685 9.33899 16.6207 9.30459C16.6729 9.27016 16.7138 9.22132 16.7387 9.16401C16.7635 9.1067 16.7712 9.04338 16.7605 8.98181C16.7501 8.92023 16.7219 8.86304 16.6794 8.81723L13.9154 5.84691ZM0.321692 3.71411H13.4466C13.5346 3.71403 13.6217 3.6958 13.7023 3.66058C13.783 3.62537 13.8555 3.57391 13.9154 3.50942L16.6841 0.540691C16.7276 0.494835 16.7565 0.437146 16.7673 0.374883C16.778 0.312619 16.7702 0.248561 16.7446 0.190771C16.7191 0.132981 16.6769 0.0840397 16.6237 0.0501066C16.5704 0.0161733 16.5082 -0.00123639 16.4451 6.83126e-05H3.32012C3.23212 0.000160944 3.14507 0.0183836 3.06443 0.0536C2.98378 0.0888162 2.91126 0.140271 2.85137 0.204755L0.0857556 3.17349C0.0432121 3.21941 0.0149841 3.27675 0.00452472 3.33847C-0.00593462 3.40019 0.00183098 3.46361 0.0268699 3.52098C0.0519089 3.57836 0.0931337 3.62719 0.145498 3.66148C0.197863 3.6958 0.259094 3.71408 0.321692 3.71411Z" fill="#9EA5AC"/>
</svg>
