<svg width="32" height="32" viewBox="0 0 32 32" fill="none" xmlns="http://www.w3.org/2000/svg">
<path d="M20.5882 12.5643L21.8768 14.1685C22.0243 14.3487 22.1551 14.4969 22.208 14.5812C22.5933 14.987 22.8094 15.5354 22.8091 16.1069C22.7729 16.7811 22.3582 17.2403 21.9742 17.7314L21.0725 18.8531L20.6022 19.4344C20.5853 19.4544 20.5744 19.4792 20.5708 19.5056C20.5673 19.532 20.5713 19.559 20.5822 19.5831C20.5932 19.6072 20.6106 19.6274 20.6325 19.6413C20.6543 19.6551 20.6796 19.662 20.7051 19.661H25.4057C26.1237 19.661 27.0282 20.3004 26.9753 21.271C26.9738 21.7122 26.8053 22.1348 26.5066 22.4468C26.2079 22.7587 25.8031 22.9347 25.3806 22.9362H18.0195C17.5353 22.9362 16.2328 22.9914 15.8682 21.8145C15.7907 21.5685 15.7801 21.3049 15.8376 21.053C15.9436 20.6806 16.1112 20.3305 16.333 20.0185C16.7031 19.4373 17.1039 18.856 17.4991 18.2923C18.0084 17.5541 18.5316 16.8392 19.0464 16.0865C19.0647 16.062 19.0747 16.0319 19.0747 16.0008C19.0747 15.9697 19.0647 15.9396 19.0464 15.9151L17.1762 13.5902C17.1641 13.5733 17.1483 13.5597 17.1302 13.5503C17.1121 13.5409 17.0921 13.536 17.0719 13.536C17.0516 13.536 17.0317 13.5409 17.0136 13.5503C16.9955 13.5597 16.9797 13.5733 16.9675 13.5902C16.4666 14.2964 14.2735 17.4233 13.806 18.0569C13.3384 18.6904 12.1863 18.7253 11.549 18.0569L8.62399 14.9909C8.60532 14.9714 8.58147 14.958 8.55553 14.9526C8.52956 14.9472 8.50265 14.95 8.47822 14.9605C8.45376 14.9711 8.43285 14.9891 8.41819 15.0121C8.40352 15.0351 8.39573 15.0621 8.39578 15.0897V20.9862C8.40266 21.4047 8.28402 21.8148 8.05642 22.1593C7.82885 22.5038 7.50377 22.7653 7.12672 22.9071C6.8858 22.9947 6.62834 23.0209 6.37575 22.9834C6.12319 22.946 5.88288 22.846 5.67482 22.6919C5.46676 22.5377 5.29699 22.3339 5.17969 22.0974C5.06241 21.8608 5.00096 21.5984 5.00049 21.332V10.7306C5.01727 10.3485 5.14891 9.98173 5.37673 9.68227C5.60454 9.38282 5.91694 9.16596 6.26955 9.06249C6.57201 8.97835 6.89039 8.97919 7.19243 9.06493C7.49447 9.15066 7.76944 9.31827 7.98946 9.55072L12.4868 14.2528C12.5003 14.2671 12.5166 14.2781 12.5346 14.285C12.5526 14.292 12.5718 14.2948 12.591 14.2931C12.6101 14.2914 12.6286 14.2854 12.6452 14.2754C12.6619 14.2654 12.6762 14.2518 12.6872 14.2353L15.8821 9.61755C16.0298 9.43009 16.2149 9.27861 16.4245 9.17369C16.6341 9.06877 16.8631 9.01298 17.0955 9.01017H25.4057C25.6331 9.01059 25.8578 9.06166 26.0648 9.16003C26.2718 9.25844 26.4563 9.40184 26.6059 9.58066C26.7556 9.75947 26.8669 9.96961 26.9325 10.197C26.9982 10.4244 27.0165 10.6638 26.9864 10.8991C26.9279 11.3075 26.7295 11.6798 26.428 11.947C26.1266 12.2142 25.7426 12.3582 25.3472 12.3522H20.694C20.6706 12.3528 20.6478 12.3599 20.628 12.3728C20.6081 12.3858 20.5919 12.404 20.5811 12.4257C20.5703 12.4473 20.5653 12.4716 20.5666 12.496C20.5678 12.5204 20.5753 12.544 20.5882 12.5643Z" fill="white"/>
</svg>
